# xmcd
#
# Track frame offsets: 
#        150
#        21951
#        44750
#        60795
#        76005
#        93679
#        105097
#        119627
#        135953
#        158880
#        173989
#        197431
#        219850
#        250256
#        277548
#        287727
#        305180
#
# Disc length: 4303 seconds
#
# Revision: 0
# Processed by: cddbd v1.5.2PL0 Copyright (c) Steve Scherf et al.
# Submitted via: ExactAudioCopy v0.99pb5
#
DISCID=de10cd11
DTITLE=Jill Jack - Songwriter Sessions
DYEAR=2009
DGENRE=Blues
TTITLE0=Tides
TTITLE1=It's You
TTITLE2=My Heart Will Never Be The Same
TTITLE3=Fast Movin' Train
TTITLE4=Tumbleweed
TTITLE5=The Valentine Song
TTITLE6=Catherine
TTITLE7=Too Far Gone
TTITLE8=Burn Baby Burn
TTITLE9=Child Within
TTITLE10=Long Time Man
TTITLE11=Wall Street Crash
TTITLE12=Flowers In Bloom
TTITLE13=Thy Will
TTITLE14=Wouldn't It Be Loverly
TTITLE15=Northern Michigan
TTITLE16=Live Like There's No Tomorrow
EXTD=
EXTT0=
EXTT1=
EXTT2=
EXTT3=
EXTT4=
EXTT5=
EXTT6=
EXTT7=
EXTT8=
EXTT9=
EXTT10=
EXTT11=
EXTT12=
EXTT13=
EXTT14=
EXTT15=
EXTT16=
PLAYORDER=
